<?xml version="1.0" encoding="iso-8859-1"?>
<!-- Generator: Adobe Illustrator 19.0.0, SVG Export Plug-In . SVG Version: 6.00 Build 0)  -->
<svg version="1.1" id="Capa_1" xmlns="http://www.w3.org/2000/svg" xmlns:xlink="http://www.w3.org/1999/xlink" x="0px" y="0px"
	 viewBox="0 0 512 512" style="enable-background:new 0 0 512 512;" xml:space="preserve">
<path style="fill:#FBA761;" d="M335.647,86.302c-0.834-48.334-37.235-87.041-81.156-86.285c-21.424,0.37-41.362,9.936-56.141,26.937
	c-14.582,16.776-22.393,38.828-21.992,62.094c0.407,23.609,9.395,52.763,23.458,76.087c16.452,27.286,36.848,42.264,57.512,42.264
	c0.245,0,0.492-0.002,0.737-0.006C303.511,206.608,336.458,133.394,335.647,86.302z"/>
<path style="fill:#FA892D;" d="M223.363,165.135c-14.062-23.323-23.051-52.477-23.458-76.087
	c-0.401-23.266,7.409-45.319,21.992-62.094c12.332-14.187,28.262-23.173,45.646-25.982c-4.255-0.698-8.614-1.032-13.051-0.955
	c-21.424,0.37-41.362,9.936-56.141,26.937c-14.582,16.776-22.393,38.828-21.992,62.094c0.407,23.609,9.395,52.763,23.458,76.087
	c16.452,27.286,36.848,42.264,57.512,42.264c0.245,0,0.492-0.002,0.737-0.006c3.752-0.064,7.417-0.632,10.985-1.629
	C252.54,201.202,236.663,187.194,223.363,165.135z"/>
<g>
	<path style="fill:#E06B1D;" d="M254.457,59.8c-3.141,0-6.02-2.032-7.077-4.987c-1.103-3.08-0.022-6.615,2.597-8.564
		c5.317-3.957,13.051,0.794,11.878,7.318C261.216,57.113,258.078,59.8,254.457,59.8z"/>
	<path style="fill:#E06B1D;" d="M222.955,84.588c-3.398,0-6.443-2.393-7.281-5.672c-0.756-2.959,0.425-6.195,2.919-7.962
		c5.452-3.863,13.109,1.09,11.715,7.661C229.579,82.047,226.472,84.588,222.955,84.588z"/>
	<path style="fill:#E06B1D;" d="M287.061,83.095c-3.073,0-5.895-1.955-7.001-4.812c-1.225-3.167-0.106-6.898,2.681-8.848
		c5.351-3.743,12.89,0.965,11.727,7.429C293.828,80.416,290.686,83.095,287.061,83.095z"/>
</g>
<path style="fill:#FBA761;" d="M432.664,28c-18.762-10.353-40.815-11.99-62.098-4.611c-21.001,7.281-38.759,22.512-50.002,42.886
	c-11.408,20.673-18.138,50.43-17.563,77.659c0.68,32.234,11.142,55.551,29.457,65.658c6.823,3.765,14.615,5.631,23.137,5.631
	c14.354,0,30.778-5.293,48.116-15.716c23.342-14.03,44.929-35.59,56.337-56.262C483.404,100.919,471.12,49.221,432.664,28z"/>
<path style="fill:#FA892D;" d="M357.043,209.591c-18.316-10.107-28.776-33.424-29.457-65.658
	c-0.575-27.228,6.155-56.985,17.563-77.659c11.243-20.374,29.001-35.605,50.002-42.886c4.66-1.615,9.356-2.772,14.047-3.527
	c-12.559-2.083-25.734-0.945-38.631,3.527c-21.001,7.281-38.759,22.512-50.002,42.886c-11.408,20.673-18.138,50.43-17.563,77.659
	c0.68,32.234,11.142,55.551,29.457,65.658c6.823,3.765,14.615,5.631,23.137,5.631c4.109,0,8.392-0.449,12.813-1.313
	C364.384,212.974,360.581,211.544,357.043,209.591z"/>
<g>
	<path style="fill:#E06B1D;" d="M406.594,80.811c-6.824,0-10.081-8.796-4.88-13.227c5.243-4.467,13.461,0.223,12.277,7.001
		C413.37,78.141,410.213,80.811,406.594,80.811z"/>
	<path style="fill:#E06B1D;" d="M366.937,86.612c-6.717,0-10.03-8.575-5.046-13.077c5.19-4.688,13.65-0.032,12.443,6.852
		C373.71,83.949,370.558,86.612,366.937,86.612z"/>
</g>
<path style="fill:#FBA761;" d="M191.435,66.275c-11.243-20.374-29.001-35.605-50.002-42.886
	c-21.284-7.379-43.337-5.742-62.098,4.611c-38.455,21.22-50.739,72.918-27.383,115.244c11.407,20.673,32.994,42.231,56.337,56.262
	c17.34,10.422,33.761,15.716,48.116,15.716c8.521,0,16.315-1.866,23.137-5.631c18.316-10.107,28.776-33.424,29.457-65.658
	C209.573,116.706,202.843,86.949,191.435,66.275z"/>
<path style="fill:#FA892D;" d="M131.209,196.192c-23.342-14.03-44.929-35.59-56.337-56.262
	C51.516,97.605,63.801,45.907,102.257,24.685c4.394-2.425,8.974-4.353,13.676-5.816c-12.801-0.153-25.297,2.896-36.597,9.132
	c-38.455,21.22-50.739,72.918-27.383,115.244c11.407,20.673,32.994,42.231,56.337,56.262c17.34,10.422,33.761,15.716,48.116,15.716
	c6.691,0,12.924-1.168,18.6-3.486C161.71,210.796,146.836,205.584,131.209,196.192z"/>
<g>
	<path style="fill:#E06B1D;" d="M105.406,80.811c-6.823,0-10.081-8.796-4.88-13.227c5.243-4.466,13.465,0.223,12.277,7.003
		C112.18,78.143,109.024,80.811,105.406,80.811z"/>
	<path style="fill:#E06B1D;" d="M145.063,86.612c-6.722,0-10.03-8.574-5.046-13.077c2.43-2.194,6.097-2.556,8.906-0.876
		c2.632,1.574,4.067,4.707,3.537,7.729C151.837,83.942,148.678,86.612,145.063,86.612z"/>
</g>
<path style="fill:#F56C6C;" d="M486.239,130.981c-1.428-1.732-3.555-2.736-5.8-2.736H31.562c-2.245,0-4.373,1.004-5.8,2.736
	c-1.427,1.732-2.005,4.013-1.575,6.217L88.311,465.84c0.689,3.528,3.78,6.075,7.375,6.075h320.626c3.595,0,6.687-2.547,7.375-6.075
	l64.125-328.642C488.245,134.994,487.665,132.713,486.239,130.981z"/>
<path style="fill:#DB4D4D;" d="M111.857,465.84L47.732,137.198c-0.43-2.204,0.148-4.485,1.575-6.217
	c1.428-1.732,3.555-2.736,5.8-2.736H31.562c-2.245,0-4.373,1.004-5.8,2.736c-1.427,1.732-2.005,4.013-1.575,6.217L88.311,465.84
	c0.689,3.528,3.78,6.075,7.375,6.075h23.546C115.638,471.915,112.546,469.368,111.857,465.84z"/>
<path style="fill:#956B64;" d="M397.883,130.767c-1.426-1.605-3.47-2.524-5.617-2.524H119.734c-2.147,0-4.191,0.919-5.617,2.524
	c-1.426,1.605-2.098,3.743-1.845,5.875l38.933,328.642c0.448,3.781,3.654,6.631,7.463,6.631h194.666
	c3.808,0,7.015-2.849,7.463-6.631l38.933-328.642C399.981,134.511,399.31,132.371,397.883,130.767z"/>
<path style="fill:#F56C6C;" d="M309.518,130.557c-1.418-1.478-3.377-2.314-5.424-2.314h-96.188c-2.047,0-4.007,0.836-5.424,2.314
	c-1.418,1.478-2.17,3.47-2.085,5.516l13.741,328.642c0.168,4.025,3.481,7.201,7.509,7.201h68.705c4.028,0,7.34-3.176,7.509-7.201
	l13.741-328.642C311.688,134.027,310.935,132.035,309.518,130.557z"/>
<path style="fill:#F2EDEC;" d="M488.454,96.181H23.546C10.563,96.181,0,106.743,0,119.727s10.563,23.546,23.546,23.546h464.908
	c12.983,0,23.546-10.563,23.546-23.546S501.437,96.181,488.454,96.181z"/>
<path style="fill:#E4DAD8;" d="M23.546,119.727c0-12.983,10.563-23.546,23.546-23.546H23.546C10.563,96.181,0,106.743,0,119.727
	s10.563,23.546,23.546,23.546h23.546C34.109,143.273,23.546,132.71,23.546,119.727z"/>
<path style="fill:#F2EDEC;" d="M88.172,504.478c0,4.15,3.365,7.515,7.515,7.515h320.626c4.15,0,7.515-3.365,7.515-7.515V464.4
	H88.172V504.478z"/>
<g>
	<path style="fill:#E4DAD8;" d="M111.718,504.478V464.4H88.172v40.078c0,4.15,3.365,7.515,7.515,7.515h23.546
		C115.083,511.993,111.718,508.628,111.718,504.478z"/>
	<path style="fill:#E4DAD8;" d="M362.19,237.835c-28.473-18.981-66.184-29.434-106.19-29.434s-77.719,10.453-106.19,29.434
		c-29.409,19.605-45.606,45.981-45.606,74.267c0,28.286,16.197,54.662,45.606,74.268c28.473,18.981,66.184,29.434,106.19,29.434
		s77.719-10.453,106.19-29.434c29.409-19.606,45.606-45.982,45.606-74.268C407.796,283.816,391.6,257.441,362.19,237.835z"/>
</g>
<path style="fill:#F2EDEC;" d="M256,391.758c-35.311,0-68.286-9.019-92.851-25.397c-22.504-15.002-34.898-34.272-34.898-54.259
	c0-19.987,12.393-39.257,34.897-54.259c24.566-16.377,57.541-25.397,92.852-25.397s68.286,9.019,92.851,25.397
	c22.504,15.002,34.898,34.272,34.898,54.259c0,19.987-12.393,39.257-34.897,54.259C324.286,382.739,291.311,391.758,256,391.758z"/>
<path style="fill:#FEF3BF;" d="M359.334,208.364c9.447-9.334,9.539-24.56,0.204-34.007c-9.334-9.447-24.56-9.539-34.006-0.204
	c-9.447,9.334-9.539,24.56-0.204,34.007c1.976,2,4.217,3.576,6.611,4.736l-63.698,62.936l22.535,22.808l63.698-62.936
	c1.132,2.407,2.68,4.667,4.656,6.667c9.334,9.447,24.56,9.539,34.007,0.204c9.447-9.334,9.539-24.56,0.204-34.007
	C384.007,199.12,368.781,199.03,359.334,208.364z"/>
<path style="fill:#FBA761;" d="M307.66,259.419c-14.701-14.88-39.986-18.611-71.191-10.511c-26.36,6.844-53.17,21.405-69.968,38.001
	c-34.388,33.976-37.25,87.038-6.38,118.282c14.588,14.764,34.133,22.054,54.325,22.054c22.54,0,45.886-9.088,64.025-27.01
	C311.975,367.133,339.603,291.751,307.66,259.419z"/>
<path style="fill:#FA892D;" d="M284.819,381.282c-18.139,17.922-41.485,27.01-64.025,27.01c-20.192,0-39.739-7.29-54.325-22.054
	c-18.698-18.924-24.998-45.851-19.436-71.694c-14.298,30.898-10.264,67.013,13.088,90.648
	c14.588,14.764,34.133,22.054,54.325,22.054c22.54,0,45.886-9.088,64.025-27.01c16.659-16.458,31.86-43.369,39.013-70.243
	C309.397,350.068,297.534,368.72,284.819,381.282z"/>
<g>
	<path style="fill:#E06B1D;" d="M231.963,342.642c-6.736,0-10.028-8.585-5.046-13.087c2.482-2.242,6.235-2.56,9.061-0.779
		c2.575,1.623,3.939,4.743,3.367,7.739C238.677,340.009,235.534,342.642,231.963,342.642z"/>
	<path style="fill:#E06B1D;" d="M265.969,308.626c-3.276,0-6.231-2.202-7.186-5.329c-0.911-2.983,0.187-6.338,2.691-8.196
		c5.361-3.979,13.131,0.816,11.876,7.405C272.683,306.013,269.548,308.626,265.969,308.626z"/>
	<path style="fill:#E06B1D;" d="M197.957,376.649c-3.061,0-5.917-1.955-7.009-4.812c-1.142-2.991-0.242-6.484,2.242-8.515
		c2.589-2.115,6.349-2.252,9.086-0.334c2.408,1.688,3.624,4.726,3.044,7.609C204.624,374.061,201.503,376.649,197.957,376.649z"/>
	<path style="fill:#E06B1D;" d="M271.641,348.303c-2.885,0-5.559-1.701-6.793-4.303c-1.433-3.02-0.639-6.781,1.929-8.938
		c5.024-4.219,13.014-0.151,12.342,6.463C278.732,345.317,275.463,348.303,271.641,348.303z"/>
	<path style="fill:#E06B1D;" d="M237.634,382.31c-3.143,0-6.016-2.022-7.077-4.981c-1.022-2.848-0.176-6.157,2.094-8.159
		c4.931-4.345,12.975-0.398,12.474,6.18C244.83,379.223,241.524,382.31,237.634,382.31z"/>
	<path style="fill:#E06B1D;" d="M192.286,336.971c-6.897,0-10.085-8.945-4.764-13.321c5.159-4.243,13.004,0.166,12.221,6.724
		C199.298,334.091,196.023,336.971,192.286,336.971z"/>
	<path style="fill:#E06B1D;" d="M226.292,302.965c-6.623,0-10.022-8.394-5.176-12.96c2.437-2.295,6.161-2.715,9.041-1.003
		c2.773,1.649,4.178,5.008,3.452,8.141C232.829,300.505,229.754,302.965,226.292,302.965z"/>
</g>
<g>
</g>
<g>
</g>
<g>
</g>
<g>
</g>
<g>
</g>
<g>
</g>
<g>
</g>
<g>
</g>
<g>
</g>
<g>
</g>
<g>
</g>
<g>
</g>
<g>
</g>
<g>
</g>
<g>
</g>
</svg>
